<?xml version="1.0" standalone="no"?>
<!DOCTYPE svg PUBLIC "-//W3C//DTD SVG 20010904//EN"
 "http://www.w3.org/TR/2001/REC-SVG-20010904/DTD/svg10.dtd">
<svg version="1.0" xmlns="http://www.w3.org/2000/svg"
 width="1600.000000pt" height="1600.000000pt" viewBox="0 0 1600.000000 1600.000000"
 preserveAspectRatio="xMidYMid meet">
<metadata>
Created by potrace 1.14, written by Peter Selinger 2001-2017
</metadata>
<g transform="translate(0.000000,1600.000000) scale(0.100000,-0.100000)"
fill="#000000" stroke="none">
<path d="M14310 13109 c-157 -20 -274 -54 -423 -122 -67 -31 -242 -137 -257
-156 -3 -3 -25 -22 -50 -42 -51 -42 -98 -86 -617 -595 -208 -204 -416 -408
-463 -454 -47 -45 -256 -249 -464 -454 -209 -204 -409 -400 -445 -435 -66 -64
-401 -392 -646 -632 l-130 -128 -115 60 c-132 68 -386 194 -475 234 -154 70
-449 190 -490 199 -5 1 -66 21 -135 43 -251 83 -528 142 -790 170 -145 15
-662 8 -767 -11 -10 -2 -49 -7 -88 -11 -83 -8 -122 -13 -195 -25 -30 -5 -73
-12 -95 -16 -22 -3 -58 -9 -80 -14 -22 -5 -56 -12 -75 -15 -299 -52 -754 -196
-1065 -337 -121 -54 -131 -57 -143 -41 -7 10 -33 40 -57 68 -24 27 -52 59 -62
71 -10 12 -47 54 -83 95 -102 115 -153 173 -180 205 -14 16 -61 70 -104 119
-172 195 -198 225 -325 370 -73 83 -203 231 -289 331 -88 101 -192 208 -236
244 -251 205 -576 361 -861 415 -147 28 -409 26 -552 -4 -167 -35 -341 -108
-498 -209 -64 -42 -186 -135 -225 -172 -178 -168 -247 -241 -327 -347 -183
-240 -284 -464 -335 -743 -13 -76 -18 -323 -7 -390 5 -30 11 -73 14 -95 37
-250 196 -596 383 -830 68 -85 9 -23 443 -466 561 -572 609 -623 607 -634 -2
-6 -57 -60 -123 -120 -66 -60 -122 -112 -125 -115 -3 -3 -50 -45 -105 -95 -54
-49 -106 -97 -115 -105 -9 -8 -54 -49 -100 -90 -46 -41 -99 -90 -119 -109 -20
-18 -56 -51 -81 -73 -46 -42 -221 -201 -250 -228 -9 -8 -60 -55 -115 -105 -54
-49 -111 -101 -125 -115 -15 -14 -76 -70 -136 -125 -59 -55 -140 -130 -179
-167 -38 -36 -80 -75 -93 -87 -13 -11 -94 -86 -180 -168 -543 -516 -1108
-1084 -1265 -1272 -224 -268 -352 -532 -403 -826 -10 -61 -12 -269 -3 -328 5
-29 11 -70 15 -91 10 -68 73 -246 119 -338 86 -170 185 -300 364 -479 218
-217 416 -338 651 -397 156 -40 365 -48 510 -22 36 7 79 14 95 17 67 11 277
87 380 138 176 86 265 153 476 355 106 102 211 203 234 225 147 142 425 408
468 449 29 27 144 137 256 245 113 108 216 207 231 221 55 52 395 378 459 440
37 36 148 142 246 235 247 235 238 228 461 441 109 105 222 213 249 239 28 26
119 113 203 194 84 80 157 147 162 149 5 2 60 -32 122 -76 160 -113 429 -273
558 -334 257 -121 311 -144 495 -210 122 -43 347 -109 440 -129 33 -7 65 -14
70 -15 61 -14 226 -42 287 -50 29 -3 64 -7 78 -9 177 -22 604 -23 740 -1 14 3
50 7 80 11 572 63 1406 323 2041 635 56 27 105 50 109 50 4 0 67 -60 141 -133
146 -145 245 -235 384 -346 50 -40 98 -79 109 -88 10 -8 87 -61 170 -117 269
-183 468 -287 717 -376 112 -41 321 -95 404 -105 28 -4 75 -10 105 -14 60 -8
276 -6 350 3 414 49 772 239 1109 589 186 193 313 414 371 647 25 99 35 333
19 443 -79 540 -493 1123 -1191 1675 l-66 52 96 93 c396 381 1266 1265 1558
1583 85 93 201 219 215 235 12 14 120 134 164 183 6 6 37 42 70 81 33 38 65
75 70 81 37 41 193 229 232 279 74 97 146 282 179 460 19 104 25 329 12 435
-52 410 -236 745 -543 985 -222 174 -466 290 -693 331 -98 17 -279 24 -362 13z
m-6000 -4957 c56 -32 62 -37 39 -40 -31 -4 -104 28 -144 63 l-30 26 35 -7 c19
-3 64 -22 100 -42z"/>
</g>
</svg>
