<?xml version="1.0" standalone="no"?>
<!DOCTYPE svg PUBLIC "-//W3C//DTD SVG 20010904//EN"
 "http://www.w3.org/TR/2001/REC-SVG-20010904/DTD/svg10.dtd">
<svg version="1.0" xmlns="http://www.w3.org/2000/svg"
 width="991.000000pt" height="991.000000pt" viewBox="0 0 991.000000 991.000000"
 preserveAspectRatio="xMidYMid meet">
<metadata>
Created by potrace 1.14, written by Peter Selinger 2001-2017
</metadata>
<g transform="translate(0.000000,991.000000) scale(0.100000,-0.100000)"
fill="#000000" stroke="none">
<path d="M7920 9891 c-150 -38 -327 -137 -510 -284 -117 -94 -324 -297 -420
-410 l-63 -75 -81 35 c-704 308 -1469 445 -2187 393 l-137 -10 -83 84 c-135
134 -266 185 -444 172 -346 -25 -746 -266 -1265 -762 -58 -55 -134 -118 -170
-139 -365 -217 -757 -537 -1043 -850 -739 -810 -1175 -1821 -1258 -2917 -15
-200 -6 -693 15 -878 92 -780 349 -1491 774 -2139 310 -472 784 -962 1220
-1258 57 -40 81 -62 77 -72 -27 -88 -47 -207 -52 -303 -6 -111 -4 -123 22
-204 46 -143 139 -225 234 -209 57 10 127 57 150 103 38 75 44 120 26 213 -19
105 -20 307 -1 414 31 174 71 303 163 525 89 213 183 344 555 767 628 714
1125 1287 1411 1625 l108 127 -15 88 -16 87 39 41 c21 22 172 184 337 360 525
563 688 735 699 735 5 0 23 19 39 41 16 23 154 175 306 339 973 1046 1243
1367 1516 1806 427 686 635 1288 634 1842 -1 255 -36 441 -105 557 -47 78 -75
106 -138 141 -47 25 -63 29 -157 31 -77 2 -125 -2 -180 -16z m-4642 -1035
c184 -93 421 -354 610 -671 86 -144 235 -445 306 -617 307 -743 598 -1830 786
-2932 l30 -178 -56 -69 c-31 -38 -60 -72 -65 -75 -10 -6 -5 -29 -80 336 -167
815 -359 1502 -589 2109 -294 777 -670 1326 -1025 1498 -214 103 -413 94 -674
-30 l-74 -36 74 76 c135 137 382 364 499 457 100 80 199 154 208 156 1 0 24
-11 50 -24z m3913 -98 c17 -24 42 -67 56 -97 61 -137 100 -408 83 -579 -10
-91 -49 -272 -59 -272 -3 0 -16 42 -28 93 -33 134 -89 242 -163 310 -81 75
-146 100 -267 101 -57 1 -89 5 -85 11 7 12 70 88 161 195 102 119 252 280 262
280 5 0 23 -19 40 -42z"/>
<path d="M8375 8025 c-136 -587 -482 -1249 -980 -1870 -231 -289 -677 -778
-1660 -1825 -1481 -1577 -1957 -2112 -2319 -2607 -183 -252 -376 -564 -494
-800 -70 -138 -167 -371 -160 -379 15 -15 342 -163 478 -217 454 -179 886
-279 1373 -318 194 -15 676 -7 857 15 1309 159 2447 815 3237 1867 468 624
787 1390 903 2174 62 418 67 895 14 1325 -108 867 -464 1711 -1012 2399 -55
69 -130 158 -165 196 l-65 70 -7 -30z"/>
</g>
</svg>
