<?xml version="1.0" standalone="no"?>
<!DOCTYPE svg PUBLIC "-//W3C//DTD SVG 20010904//EN"
 "http://www.w3.org/TR/2001/REC-SVG-20010904/DTD/svg10.dtd">
<svg version="1.0" xmlns="http://www.w3.org/2000/svg"
 width="1044.000000pt" height="1044.000000pt" viewBox="0 0 1044.000000 1044.000000"
 preserveAspectRatio="xMidYMid meet">
<metadata>
Created by potrace 1.14, written by Peter Selinger 2001-2017
</metadata>
<g transform="translate(0.000000,1044.000000) scale(0.100000,-0.100000)"
fill="#000000" stroke="none">
<path d="M3358 7955 c-2 -2 -34 -6 -73 -9 -231 -21 -460 -145 -614 -334 -65
-79 -128 -196 -161 -299 -34 -105 -44 -172 -44 -293 1 -200 32 -300 192 -605
34 -66 75 -145 90 -175 15 -30 29 -57 32 -60 3 -3 14 -23 26 -45 20 -38 86
-162 127 -235 10 -19 16 -32 11 -27 -4 4 -14 1 -23 -6 -9 -8 -104 -61 -211
-120 -107 -58 -224 -122 -260 -142 -36 -20 -73 -39 -82 -42 -10 -3 -18 -10
-18 -15 0 -5 -4 -7 -9 -4 -5 3 -14 -1 -21 -9 -7 -8 -16 -12 -21 -9 -5 3 -9 1
-9 -3 0 -5 -17 -17 -37 -28 -21 -11 -89 -48 -152 -82 -62 -35 -115 -63 -117
-63 -1 0 -29 -15 -61 -34 -61 -35 -97 -55 -228 -126 -44 -24 -82 -46 -85 -49
-3 -3 -27 -18 -55 -32 -42 -22 -375 -207 -485 -271 -112 -64 -246 -143 -250
-148 -3 -3 -23 -17 -45 -32 -59 -40 -147 -134 -199 -212 -126 -190 -163 -433
-101 -666 51 -197 212 -389 410 -492 178 -92 412 -114 595 -57 55 18 315 142
330 159 3 3 27 16 55 30 27 14 66 34 85 46 19 11 71 40 115 64 44 24 94 52
110 61 17 10 44 25 60 33 17 8 57 31 90 50 33 19 87 49 120 66 33 18 65 35 70
40 6 4 45 26 88 49 43 24 93 51 110 61 18 11 48 28 67 38 19 10 62 33 95 52
33 18 128 71 210 116 83 46 155 88 162 93 7 6 15 11 19 11 4 0 91 47 194 105
102 58 191 105 198 105 7 0 12 4 12 8 0 8 91 56 94 50 4 -10 72 -105 81 -114
5 -6 24 -29 40 -50 41 -54 172 -183 220 -219 22 -16 47 -37 55 -45 36 -37 192
-134 331 -207 82 -43 299 -133 322 -133 7 0 17 -3 21 -7 3 -4 12 -8 19 -9 7
-2 54 -14 104 -28 51 -14 105 -28 120 -31 84 -15 205 -35 253 -40 30 -3 73 -8
95 -11 52 -7 395 -7 460 0 28 3 77 8 110 11 33 3 71 7 85 10 14 3 45 8 70 11
25 3 54 8 65 11 11 2 29 6 40 8 11 1 54 10 95 20 41 9 83 18 92 20 15 3 94
-101 280 -368 15 -22 201 -279 238 -328 47 -64 180 -189 200 -189 6 0 10 -4
10 -9 0 -13 176 -97 243 -116 128 -37 273 -48 397 -31 68 9 79 12 165 41 139
46 265 125 368 230 51 52 153 195 140 195 -4 0 -3 4 3 8 13 9 46 81 68 147 31
95 44 194 41 308 -4 151 -30 258 -94 386 -25 52 -82 142 -101 161 -20 20 -100
132 -100 140 0 6 -3 10 -8 10 -4 0 -27 26 -52 58 -24 31 -48 62 -52 67 -5 6
-22 28 -38 49 l-30 39 56 34 c31 18 73 43 93 53 20 11 43 24 51 30 8 5 56 32
105 60 50 28 97 55 105 60 8 6 24 15 35 20 11 6 43 24 70 41 28 16 58 33 68
36 9 3 17 9 17 14 0 5 4 9 10 9 5 0 47 22 93 50 46 27 88 50 94 50 6 0 13 3
15 8 2 6 246 151 507 302 287 166 416 264 508 385 31 42 88 160 111 230 52
161 44 371 -18 520 -7 17 -14 36 -16 43 -6 30 -97 162 -151 217 -204 212 -514
298 -793 219 -58 -17 -299 -133 -320 -154 -3 -3 -16 -11 -30 -18 -40 -20 -225
-123 -275 -154 -16 -10 -36 -21 -44 -25 -20 -9 -323 -181 -341 -193 -8 -6 -22
-13 -30 -17 -8 -4 -37 -20 -65 -36 -27 -16 -72 -42 -100 -57 -27 -15 -90 -51
-140 -80 -49 -29 -115 -66 -145 -83 -30 -16 -117 -66 -192 -109 -75 -43 -142
-78 -148 -78 -5 0 -10 -4 -10 -10 0 -5 -6 -10 -12 -11 -7 0 -44 -20 -83 -43
l-70 -42 -145 146 c-80 80 -183 174 -230 208 -47 34 -89 65 -95 69 -5 5 -31
19 -57 33 -27 14 -48 28 -48 32 0 5 -4 8 -10 8 -5 0 -54 22 -109 49 -55 27
-117 55 -138 61 -21 7 -42 16 -48 20 -25 17 -291 96 -390 115 -22 5 -47 10
-55 12 -26 6 -134 24 -175 28 -22 3 -54 7 -70 10 -131 22 -541 22 -720 0 -16
-2 -53 -6 -81 -9 l-51 -5 -38 82 c-21 45 -39 84 -39 87 -1 3 -6 12 -11 20 -5
8 -33 65 -61 125 -28 61 -66 142 -84 180 -157 338 -245 510 -294 579 -53 74
-191 206 -216 206 -6 0 -10 5 -10 10 0 6 -5 10 -11 10 -6 0 -23 8 -37 18 -32
22 -160 75 -217 91 -58 16 -92 21 -170 27 -38 3 -78 6 -87 8 -9 2 -18 3 -20 1z"/>
</g>
</svg>
